name C:\Users\antoi\Documents\MyRepositories\upper-imu-dc\Results\main_tracking\Case_79\ABD01_linearAccelerations_bodyFrame.mot
datacolumns 4
datarows 94
range 7.88000000 8.81000000
endheader 
time	radius_imu_x	radius_imu_y	radius_imu_z	
          7.88000000	         -1.20579896	         -4.19408394	          7.28182493	
          7.89000000	         -1.39331531	         -4.06301842	          7.38555272	
          7.90000000	         -1.58961236	         -3.93062047	          7.49802255	
          7.91000000	         -1.79267064	         -3.79715590	          7.61936410	
          7.92000000	         -1.99997958	         -3.66288508	          7.74939050	
          7.93000000	         -2.20857604	         -3.52803175	          7.88757756	
          7.94000000	         -2.41524691	         -3.39282025	          8.03282914	
          7.95000000	         -2.61641229	         -3.25744418	          8.18346351	
          7.96000000	         -2.80836336	         -3.12216220	          8.33748405	
          7.97000000	         -2.98752897	         -2.98712742	          8.49253239	
          7.98000000	         -3.14992572	         -2.85237408	          8.64559059	
          7.99000000	         -3.29201916	         -2.71796975	          8.79398229	
          8.00000000	         -3.41095929	         -2.58422435	          8.93628737	
          8.01000000	         -3.50425908	         -2.45116228	          9.07080370	
          8.02000000	         -3.57119290	         -2.31856285	          9.19534360	
          8.03000000	         -3.61138256	         -2.18660310	          9.30942780	
          8.04000000	         -3.62536222	         -2.05541974	          9.41363955	
          8.05000000	         -3.61497557	         -1.92518502	          9.50958658	
          8.06000000	         -3.58194596	         -1.79579990	          9.59799384	
          8.07000000	         -3.52915318	         -1.66735954	          9.67915366	
          8.08000000	         -3.45908718	         -1.53944945	          9.75297919	
          8.09000000	         -3.37408744	         -1.41224297	          9.82058298	
          8.10000000	         -3.27703827	         -1.28589829	          9.88263448	
          8.11000000	         -3.17029821	         -1.16045686	          9.93866082	
          8.12000000	         -3.05647090	         -1.03598653	          9.98821109	
          8.13000000	         -2.93762777	         -0.91267812	         10.03096414	
          8.14000000	         -2.81508749	         -0.79069726	         10.06635564	
          8.15000000	         -2.68991253	         -0.67016294	         10.09372155	
          8.16000000	         -2.56285450	         -0.55117177	         10.11243701	
          8.17000000	         -2.43443599	         -0.43379878	         10.12192514	
          8.18000000	         -2.30511390	         -0.31811180	         10.12171735	
          8.19000000	         -2.17538832	         -0.20411645	         10.11160729	
          8.20000000	         -2.04602427	         -0.09174396	         10.09167291	
          8.21000000	         -1.91822018	          0.01914814	         10.06227236	
          8.22000000	         -1.79355962	          0.12876631	         10.02398108	
          8.23000000	         -1.67371242	          0.23739985	          9.97753407	
          8.24000000	         -1.56038580	          0.34536903	          9.92371111	
          8.25000000	         -1.45506453	          0.45302294	          9.86330583	
          8.26000000	         -1.35885943	          0.56073529	          9.79709486	
          8.27000000	         -1.27237944	          0.66891240	          9.72590034	
          8.28000000	         -1.19578322	          0.77800785	          9.65065572	
          8.29000000	         -1.12890507	          0.88851870	          9.57247340	
          8.30000000	         -1.07143188	          1.00096371	          9.49263537	
          8.31000000	         -1.02309712	          1.11584615	          9.41252254	
          8.32000000	         -0.98374846	          1.23361019	          9.33349392	
          8.33000000	         -0.95337125	          1.35461319	          9.25679181	
          8.34000000	         -0.93220091	          1.47911207	          9.18350543	
          8.35000000	         -0.92040329	          1.60723091	          9.11433566	
          8.36000000	         -0.91810743	          1.73899553	          9.04974645	
          8.37000000	         -0.92552064	          1.87434883	          8.99013681	
          8.38000000	         -0.94271536	          2.01315124	          8.93593107	
          8.39000000	         -0.96972763	          2.15520674	          8.88753798	
          8.40000000	         -1.00645581	          2.30027957	          8.84539642	
          8.41000000	         -1.05268411	          2.44810770	          8.80989690	
          8.42000000	         -1.10805446	          2.59838831	          8.78123720	
          8.43000000	         -1.17200721	          2.75079347	          8.75933418	
          8.44000000	         -1.24368065	          2.90494903	          8.74367474	
          8.45000000	         -1.32184484	          3.06040851	          8.73331683	
          8.46000000	         -1.40486962	          3.21669915	          8.72696258	
          8.47000000	         -1.49071358	          3.37332783	          8.72309250	
          8.48000000	         -1.57707450	          3.52982777	          8.72014536	
          8.49000000	         -1.66133728	          3.68578333	          8.71684706	
          8.50000000	         -1.74084852	          3.84089283	          8.71217418	
          8.51000000	         -1.81254939	          3.99489209	          8.70493789	
          8.52000000	         -1.87400826	          4.14748658	          8.69517147	
          8.53000000	         -1.92258722	          4.29861503	          8.68285415	
          8.54000000	         -1.95616661	          4.44819109	          8.66819854	
          8.55000000	         -1.97308513	          4.59618774	          8.65188530	
          8.56000000	         -1.97214694	          4.74260891	          8.63468495	
          8.57000000	         -1.95278131	          4.88745858	          8.61713810	
          8.58000000	         -1.91498324	          5.03071602	          8.59940370	
          8.59000000	         -1.85940324	          5.17227308	          8.58109270	
          8.60000000	         -1.78718473	          5.31202754	          8.56131531	
          8.61000000	         -1.69989760	          5.44982664	          8.53889875	
          8.62000000	         -1.59951705	          5.58551747	          8.51261326	
          8.63000000	         -1.48829360	          5.71900677	          8.48152583	
          8.64000000	         -1.36875439	          5.85028758	          8.44519421	
          8.65000000	         -1.24371143	          5.97941882	          8.40372490	
          8.66000000	         -1.11630097	          6.10650603	          8.35774573	
          8.67000000	         -0.98991081	          6.23166585	          8.30828906	
          8.68000000	         -0.86805369	          6.35497588	          8.25663161	
          8.69000000	         -0.75415498	          6.47645290	          8.20410266	
          8.70000000	         -0.65127813	          6.59606963	          8.15187934	
          8.71000000	         -0.56187294	          6.71377871	          8.10081988	
          8.72000000	         -0.48756624	          6.82948078	          8.05130714	
          8.73000000	         -0.42904728	          6.94301708	          8.00300485	
          8.74000000	         -0.38622933	          7.05430230	          7.95515488	
          8.75000000	         -0.35832727	          7.16322665	          7.90666811	
          8.76000000	         -0.34396928	          7.26960519	          7.85616162	
          8.77000000	         -0.34146786	          7.37331976	          7.80248501	
          8.78000000	         -0.34897700	          7.47428854	          7.74467508	
          8.79000000	         -0.36469267	          7.57245910	          7.68184483	
          8.80000000	         -0.38688023	          7.66781132	          7.61301745	
          8.81000000	         -0.41353998	          7.76056336	          7.53867161	
